<?xml version="1.0" encoding="UTF-8" standalone="no"?>
<svg
   class="ui-icon css-qq58ei"
   viewBox="0 0 21.333302 24"
   width="21.333302"
   height="24"
   version="1.1"
   id="svg2"
   xmlns="http://www.w3.org/2000/svg"
   xmlns:svg="http://www.w3.org/2000/svg">
  <g
     clip-path="url(#clip0_1781_14626)"
     fill="none"
     id="g2"
     transform="translate(0,-4)">
    <path
       d="M 4.1174,7.6761 10.6667,4 17.2159,7.6761 14.8081,9.03415 10.6667,6.7161 6.5252,9.03415 Z m 13.0985,4.6361 -2.4078,-1.358 -4.1414,2.318 -4.1415,-2.318 -2.4078,1.358 v 2.7161 l 4.14142,2.318 v 4.6362 l 2.40788,1.358 2.4078,-1.358 v -4.6362 l 4.1414,-2.318 z m 0,7.3522 v -2.7161 l -2.4078,1.358 v 2.7161 z m 1.7096,0.96 -4.1414,2.318 v 2.7162 l 6.5492,-3.6761 v -7.3523 l -2.4078,1.3581 z M 16.5177,9.99415 18.9255,11.3522 v 2.7161 l 2.4078,-1.3581 V 9.99415 L 18.9255,8.6361 Z M 8.25882,23.9258 V 26.642 L 10.6667,28 13.0745,26.642 v -2.7162 l -2.4078,1.3581 z M 4.1174,19.6644 6.5252,21.0224 V 18.3063 L 4.1174,16.9483 Z M 8.25882,9.99415 10.6667,11.3522 13.0745,9.99415 10.6667,8.6361 Z M 2.40782,11.3522 4.81564,9.99415 2.40782,8.6361 0,9.99415 v 2.71605 l 2.40782,1.3581 z m 0,4.6361 L 0,14.6302 v 7.3523 l 6.54925,3.6761 v -2.7162 l -4.14143,-2.318 z"
       fill="#f0b90b"
       id="path1" />
  </g>
  <defs
     id="defs2">
    <clipPath
       id="clip0_1781_14626">
      <rect
         width="132"
         height="32"
         fill="#ffffff"
         id="rect2"
         x="0"
         y="0" />
    </clipPath>
  </defs>
</svg>
