<svg xmlns="http://www.w3.org/2000/svg" height="593.428" width="593.427" xmlns:v="https://vecta.io/nano"><style><![CDATA[.B{writing-mode:lr-tb}.C{fill:#eaeaeb}.D{font-size:21px}.E{font-family:Corbel}.F{font-family:Myriad Pro}.G{font-size:21.5px}.H{stroke-linejoin:round}.I{stroke-miterlimit:10}]]></style><defs><linearGradient id="A" spreadMethod="pad" gradientUnits="userSpaceOnUse" y2="78.148" x2="395.365" y1="471.549" x1="187.218"><stop offset="0" stop-color="#b42a27"/><stop offset=".987" stop-color="#570000"/></linearGradient><clipPath id="B"><path d="M0 570.667h573.94V0H0z"/></clipPath><clipPath id="C"><path d="M0 0h573.941v570.667H0z"/></clipPath><clipPath id="D"><path d="M0 570.667h573.94V0H0z"/></clipPath></defs><g transform="matrix(1.333333 0 0 -1.333333 -86.873329 672.25465)"><path d="M65.155 281.656c0-122.904 99.632-222.536 222.534-222.536h0c122.904 0 222.536 99.632 222.536 222.536h0c0 122.901-99.632 222.535-222.536 222.535h0c-122.902 0-222.534-99.634-222.534-222.535" fill="url(#A)"/><g clip-path="url(#B)" class="H I"><path d="M474.892 282.58c0-103.791-84.139-187.929-187.93-187.929S99.032 178.789 99.032 282.58s84.139 187.93 187.93 187.93 187.93-84.139 187.93-187.93z" fill="none" stroke="#c8c7c7" stroke-width="4"/></g><g clip-path="url(#C)"><path d="M304.441 241.609c10.002 0 18.14 3.54 22.915 9.968 3.252 4.379 4.031 10.586 4.45 13.921l.072.562c.345 2.676.321 4.472.287 6.957-.033 2.278-.072 5.112.166 9.634.295 5.605.442 8.406.91 10.601 1.845 8.651 8.129 14.773 12.895 18.584-2.638-1.392-6.431-3.482-11.881-6.608a.9.9 0 0 0-.241-.182c-4.886-2.545-17.941-10.292-19.657-15.512-.376-1.143-.726-2.014-1.041-2.59-1.356-4.064-1.086-8.794-.824-13.37.321-5.616.625-10.921-2.348-14.068-1.736-1.838-4.377-2.732-8.073-2.732-4.825 0-6.93 0-7.883.152l-.008-.07a16.38 16.38 0 0 1-.535.004c-.932 0-3.204-.016-8.751-.064l-4.787-.021c-9.971 0-12.982.31-13.105.323a1 1 0 0 0-.894.989l-.297 50.37a1 1 0 0 0 .991 1.006l14.897.056 13.751-.056c10.411-.094 17.407-4.702 18.903-12.214 3.033 3.267 8.829 6.559 13.282 9.088l3.473 2.032c-.432 3.197-1.483 6.019-3.13 8.396-5.577 8.057-16.241 9.748-24.204 9.748h-55.561v-84.904zm-33.443-66.933a1 1 0 0 0-1 1v23.629h-62.403a1 1 0 0 0-1 1v166.108a1 1 0 0 0 .988 1l62.754.814v23.602a1 1 0 0 0 1 1h39.768a1 1 0 0 0 1-1v-24.457c37.394-1.703 55.924-17.708 61.882-53.365 1.815-10.866 1.794-23.341 1.768-37.786l-.005-5.176c0-33.214-17.498-50.959-32.178-59.998-13.73-8.454-27.638-11.052-31.226-11.609v-23.762a1 1 0 0 0-1-1z" fill="#100f0f"/><path d="M249.214 325.513h54.561c7.723 0 18.05-1.616 23.381-9.316 1.446-2.089 2.408-4.548 2.866-7.325-.764-.463-1.773-1.036-2.882-1.666-4.772-2.71-9.284-5.383-12.267-8.057-2.286 6.915-9.444 11.225-19.414 11.314l-13.76.056c-8.395 0-14.841-.056-14.905-.056a2 2 0 0 1-1.982-2.012l.296-50.37a2 2 0 0 1 1.787-1.977c.125-.014 3.189-.329 13.211-.329l4.797.021 8.747.065.48-.004c-.242.01-.504.083-.752.213.564-.253 1.258-.263 1.87-.271l6.823-.024c3.986 0 6.865.996 8.801 3.045 3.268 3.461 2.953 8.975 2.619 14.812-.255 4.45-.517 9.051.748 12.916.334.63.684 1.508 1.067 2.674 1.431 4.351 12.518 11.471 19.17 14.937.144.075.275.165.393.269l4.722 2.683c-3.216-3.567-6.144-8.094-7.328-13.65-.485-2.276-.634-5.11-.93-10.757-.239-4.555-.2-7.408-.169-9.7.034-2.444.058-4.21-.278-6.815l-.072-.568c-.407-3.243-1.166-9.28-4.261-13.447-4.581-6.168-12.434-9.565-22.112-9.565h-55.227zm61.891 68.316h-39.768a2 2 0 0 1-2-2v-22.615l-61.768-.801a2 2 0 0 1-1.974-2V200.306a2 2 0 0 1 2-2h61.403v-22.629a2 2 0 0 1 2-2h40.348a2 2 0 0 1 2 2v22.903c4.643.776 17.619 3.531 30.751 11.616 14.896 9.172 32.653 27.174 32.653 60.849l.006 5.166c.025 14.493.047 27.01-1.782 37.961-6.002 35.915-24.546 52.198-61.869 54.152v23.505a2 2 0 0 1-2 2m-63.891-153.22h57.227c10.886 0 19.002 4.024 23.718 10.373 3.608 4.857 4.301 11.776 4.711 14.951.677 5.251-.034 7.254.46 16.667.291 5.549.437 8.323.889 10.444 3.003 14.089 18.595 21.52 18 22.445-.029.044-.092.069-.196.069-.982-.001-5.569-2.174-18.478-9.584.005-.026.007-.041.007-.041s-17.926-9.333-20.145-16.087c-.402-1.22-.739-2.023-1.008-2.495-4.102-12.059 5.649-29.576-10.328-29.576l-8.421.086a1579.34 1579.34 0 0 1-8.764-.065l-4.78-.021c-10.031 0-12.998.318-12.998.318l-.296 50.37 14.887.056 13.742-.056c11.246-.101 17.972-5.62 18.206-13.89.005.009.009.018.013.027 2.455 4.98 15.487 11.116 18.515 13.282-.314 2.869-1.184 6.29-3.375 9.453-5.39 7.786-15.45 10.178-25.025 10.178h-56.561v-86.904m63.891 151.22v-25.416c39.072-1.511 56.165-18.278 61.896-52.57 2.015-12.064 1.749-26.297 1.749-42.798 0-63.403-63.404-70.739-63.404-70.739v-24.629h-40.348v24.629h-63.403v166.107l63.742.827v24.589z" fill="#dddcdc"/></g><text transform="matrix(.848584 -.529061 -.529061 -.848584 385.6055 453.6914)" class="B C D E"><tspan x="0" y="0">D</tspan></text><text transform="matrix(.80573 -.592282 -.592282 -.80573 397.959 445.9971)" class="B C D E"><tspan x="0" y="0">O</tspan></text><text transform="matrix(.758531 -.651636 -.651636 -.758531 410.6348 436.6279)" class="B C D E"><tspan x="0" y="0">G</tspan></text><text transform="matrix(.713532 -.700623 -.700623 -.713532 421.5918 427.1416)" class="B C D E"><tspan x="0" y="0">E</tspan></text><text transform="matrix(.665247 -.746623 -.746623 -.665247 430.207 418.7187)" class="B C D E"><tspan x="0" y="0">D</tspan></text><text transform="matrix(.61392 -.789368 -.789368 -.61392 439.8545 407.8032)" class="B C D E"><tspan x="0" y="0">E</tspan></text><text transform="matrix(.553258 -.83301 -.83301 -.553258 447.3096 398.3628)" class="B C D E"><tspan x="0" y="0">M</tspan></text><text transform="matrix(.481167 -.876629 -.876629 -.481167 457.0361 383.6162)" class="B C D E"><tspan x="0" y="0">O</tspan></text><text transform="matrix(.411281 -.911509 -.911509 -.411281 464.6064 369.7583)" class="B C D E"><tspan x="0" y="0">N</tspan></text><text transform="matrix(.331133 -.943584 -.943584 -.331133 471.998 352.8174)" class="B C D E"><tspan x="0" y="0">T</tspan></text><text transform="matrix(.265909 -.963998 -.963998 -.265909 475.9014 341.8867)" class="B C D E"><tspan x="0" y="0">O</tspan></text><text transform="matrix(.194434 -.980916 -.980916 -.194434 480.0361 326.6543)" class="B C D E"><tspan x="0" y="0">K</tspan></text><text transform="matrix(.131476 -.991319 -.991319 -.131476 482.5664 313.7187)" class="B C D E"><tspan x="0" y="0">E</tspan></text><text transform="matrix(.063652 -.997972 -.997972 -.063652 484.1855 301.7783)" class="B C D E"><tspan x="0" y="0">N</tspan></text><text transform="matrix(-.016329 -.999867 -.999867 .016329 485.0879 281.8672)" class="B C D E"><tspan x="0" y="0">-</tspan></text><text transform="matrix(-.082372 -.996602 -.996602 .082372 484.8574 270.9419)" class="B C D E"><tspan x="0" y="0">T</tspan></text><text transform="matrix(-.148909 -.988851 -.988851 .148909 483.8809 258.8491)" class="B C D E"><tspan x="0" y="0">H</tspan></text><text transform="matrix(-.214914 -.976633 -.976633 .214914 481.6709 244.5449)" class="B C D E"><tspan x="0" y="0">E</tspan></text><text transform="matrix(-.303834 -.952725 -.952725 .303834 477.8652 228.1133)" class="B C D E"><tspan x="0" y="0">D</tspan></text><text transform="matrix(-.367462 -.930039 -.930039 .367462 473.3896 214.2705)" class="B C D E"><tspan x="0" y="0">E</tspan></text><text transform="matrix(-.436481 -.899714 -.899714 .436481 469.0537 203.0498)" class="B C D E"><tspan x="0" y="0">M</tspan></text><text transform="matrix(-.510868 -.859659 -.859659 .510868 461.2871 187.1748)" class="B C D E"><tspan x="0" y="0">O</tspan></text><text transform="matrix(-.57601 -.817443 -.817443 .57601 453.2021 173.6318)" class="B C D E"><tspan x="0" y="0">N</tspan></text><text transform="matrix(-.67169 -.740833 -.740833 .67169 438.4697 153.8262)" class="B C D E"><tspan x="0" y="0">D</tspan></text><text transform="matrix(-.725949 -.687749 -.687749 .725949 428.7217 143.0654)" class="B C D E"><tspan x="0" y="0">O</tspan></text><text transform="matrix(-.776 -.630733 -.630733 .776 417.2324 132.2373)" class="B C D E"><tspan x="0" y="0">G</tspan></text><text transform="matrix(-.816353 -.577553 -.577553 .816353 405.9355 123.1279)" class="B C D E"><tspan x="0" y="0">E</tspan></text><text transform="matrix(-.856654 -.515891 -.515891 .856654 391.9639 113.5879)" class="B C D E"><tspan x="0" y="0">-</tspan></text><text transform="matrix(-.885058 -.465481 -.465481 .885058 381.2822 107.3682)" class="B C D E"><tspan x="0" y="0">I</tspan></text><text transform="matrix(-.908344 -.418224 -.418224 .908344 376.3125 104.6289)" class="B C D E"><tspan x="0" y="0">N</tspan></text><text transform="matrix(-.945422 -.325847 -.325847 .945422 358.1465 96.5664)" class="B C D E"><tspan x="0" y="0">D</tspan></text><text transform="matrix(-.967701 -.2521 -.2521 .967701 344.4082 91.8242)" class="B C D E"><tspan x="0" y="0">O</tspan></text><text transform="matrix(-.984175 -.1772 -.1772 .984175 329.1338 87.8896)" class="B C D E"><tspan x="0" y="0">G</tspan></text><text transform="matrix(-.993838 -.110838 -.110838 .993838 314.8486 85.376)" class="B C D E"><tspan x="0" y="0">E</tspan></text><text transform="matrix(-.999868 -.016219 -.016219 .999868 299.2246 83.6768)" class="B C D E"><tspan x="0" y="0">W</tspan></text><text transform="matrix(-.998102 .061581 .061581 .998102 280.2705 83.5273)" class="B C D E"><tspan x="0" y="0">E</tspan></text><text transform="matrix(-.990269 .139167 .139167 .990269 264.8271 84.6318)" class="B C D E"><tspan x="0" y="0">T</tspan></text><text transform="matrix(-.979463 .201624 .201624 .979463 252.8066 86.3223)" class="B C D E"><tspan x="0" y="0">R</tspan></text><text transform="matrix(-.963063 .269276 .269276 .963063 240.1885 88.9072)" class="B C D E"><tspan x="0" y="0">U</tspan></text><text transform="matrix(-.942656 .333766 .333766 .942656 226.1855 92.8818)" class="B C D E"><tspan x="0" y="0">S</tspan></text><text transform="matrix(-.920332 .391138 .391138 .920332 214.7988 96.9277)" class="B C D E"><tspan x="0" y="0">T</tspan></text><text transform="matrix(-.888743 .458405 .458405 .888743 199.2686 103.8398)" class="B C D E"><tspan x="0" y="0">-</tspan></text><text transform="matrix(-.849277 .527948 .527948 .849277 188.3887 109.5303)" class="B C D E"><tspan x="0" y="0">D</tspan></text><text transform="matrix(-.806498 .591237 .591237 .806498 176.0254 117.208)" class="B C D E"><tspan x="0" y="0">O</tspan></text><text transform="matrix(-.75938 .650647 .650647 .75938 163.3369 126.5605)" class="B C D E"><tspan x="0" y="0">G</tspan></text><text transform="matrix(-.714447 .69969 .69969 .714447 152.3701 136.0332)" class="B C D E"><tspan x="0" y="0">E</tspan></text><text transform="matrix(-.666219 .745757 .745757 .666219 143.7422 144.4443)" class="B C D E"><tspan x="0" y="0">D</tspan></text><text transform="matrix(-.614954 .788563 .788563 .614954 134.0801 155.3477)" class="B C D E"><tspan x="0" y="0">E</tspan></text><text transform="matrix(-.554351 .832283 .832283 .554351 126.6133 164.7773)" class="B C D E"><tspan x="0" y="0">M</tspan></text><text transform="matrix(-.482332 .875988 .875988 .482332 116.8701 179.5098)" class="B C D E"><tspan x="0" y="0">O</tspan></text><text transform="matrix(-.412494 .91096 .91096 .412494 109.2813 193.3574)" class="B C D E"><tspan x="0" y="0">N</tspan></text><text transform="matrix(-.309172 .951006 .951006 .309172 100.1846 214.8086)" class="B C D E"><tspan x="0" y="0">T</tspan></text><text transform="matrix(-.243505 .9699 .9699 .243505 96.5352 225.8252)" class="B C D E"><tspan x="0" y="0">O</tspan></text><text transform="matrix(-.171781 .985135 .985135 .171781 92.7568 241.1396)" class="B C D E"><tspan x="0" y="0">K</tspan></text><text transform="matrix(-.108686 .994076 .994076 .108686 90.5244 254.1392)" class="B C D E"><tspan x="0" y="0">E</tspan></text><text transform="matrix(-.040943 .999161 .999161 .040943 89.1807 266.1152)" class="B C D E"><tspan x="0" y="0">N</tspan></text><text transform="matrix(.038967 .999241 .999241 -.038967 88.7285 286.0464)" class="B C D E"><tspan x="0" y="0">-</tspan></text><text transform="matrix(.105148 .994457 .994457 -.105148 89.207 296.9604)" class="B C D E"><tspan x="0" y="0">T</tspan></text><text transform="matrix(.171595 .985168 .985168 -.171595 90.4561 309.0122)" class="B C D E"><tspan x="0" y="0">H</tspan></text><text transform="matrix(.237452 .971399 .971399 -.237452 92.998 323.2749)" class="B C D E"><tspan x="0" y="0">E</tspan></text><text transform="matrix(.348885 .937165 .937165 -.348885 98.6455 344.2075)" class="B C D E"><tspan x="0" y="0">D</tspan></text><text transform="matrix(.411277 .911511 .911511 -.411277 103.7754 357.8179)" class="B C D E"><tspan x="0" y="0">E</tspan></text><text transform="matrix(.47868 .877989 .877989 -.47868 108.6426 368.8242)" class="B C D E"><tspan x="0" y="0">M</tspan></text><text transform="matrix(.550897 .834574 .834574 -.550897 117.1504 384.3081)" class="B C D E"><tspan x="0" y="0">O</tspan></text><text transform="matrix(.613915 .789372 .789372 -.613915 125.873 397.4624)" class="B C D E"><tspan x="0" y="0">N</tspan></text><text transform="matrix(.688428 .725304 .725304 -.688428 138.2764 412.9707)" class="B C D E"><tspan x="0" y="0">D</tspan></text><text transform="matrix(.741518 .670933 .670933 -.741518 148.2803 423.5205)" class="B C D E"><tspan x="0" y="0">O</tspan></text><text transform="matrix(.79029 .612733 .612733 -.79029 160.0186 434.0845)" class="B C D E"><tspan x="0" y="0">G</tspan></text><text transform="matrix(.829359 .558716 .558716 -.829359 171.5 442.915)" class="B C D E"><tspan x="0" y="0">E</tspan></text><text transform="matrix(.868309 .496024 .496024 -.868309 185.6973 452.1401)" class="B C D E"><tspan x="0" y="0">-</tspan></text><text transform="matrix(.906541 .422118 .422118 -.906541 201.0547 460.3652)" class="B C D F"><tspan x="0" y="0">I</tspan></text><text transform="matrix(.926654 .375915 .375915 -.926654 206.0293 462.79)" class="B C D F"><tspan x="0" y="0">N</tspan></text><text transform="matrix(.959206 .28271 .28271 -.959206 224.0557 469.8125)" class="B C D F"><tspan x="0" y="0">D</tspan></text><text transform="matrix(.977568 .210619 .210619 -.977568 237.874 473.8789)" class="B C D F"><tspan x="0" y="0">O</tspan></text><text transform="matrix(.990378 .138391 .138391 -.990378 252.4912 476.9927)" class="B C D F"><tspan x="0" y="0">G</tspan></text><text transform="matrix(.997087 .076267 .076267 -.997087 266.4082 478.8711)" class="B C D F"><tspan x="0" y="0">E</tspan></text><text transform="matrix(.999853 -.017119 -.017119 -.999853 281.4629 479.9717)" class="B C D F"><tspan x="0" y="0">W</tspan></text><text transform="matrix(.996 -.089352 -.089352 -.996 299.6748 479.5098)" class="B C D F"><tspan x="0" y="0">E</tspan></text><text transform="matrix(.986129 -.165981 -.165981 -.986129 314.748 477.978)" class="B C F G"><tspan x="0" y="0">T</tspan></text><text transform="matrix(.974639 -.223782 -.223782 -.974639 325.7773 476.1196)" class="B C F G"><tspan x="0" y="0">R</tspan></text><text transform="matrix(.957376 -.288846 -.288846 -.957376 337.5547 473.4395)" class="B C F G"><tspan x="0" y="0">U</tspan></text><text transform="matrix(.936696 -.350144 -.350144 -.936696 351.3018 469.2197)" class="B C F G"><tspan x="0" y="0">S</tspan></text><text transform="matrix(.915321 -.402726 -.402726 -.915321 361.7275 465.3071)" class="B C F G"><tspan x="0" y="0">T</tspan></text><text transform="matrix(.883645 -.468157 -.468157 -.883645 376.6143 458.4492)" class="B C F G"><tspan x="0" y="0">-</tspan></text><g clip-path="url(#D)" class="H I"><path d="M469.15 283.118c0-100.908-81.802-182.708-182.709-182.708s-182.708 81.8-182.708 182.708 81.801 182.709 182.708 182.709S469.15 384.026 469.15 283.118z" fill="none" stroke="#100f0f" stroke-width="7"/></g></g></svg>